<?xml version="1.0" encoding="UTF-8" standalone="no"?>
<!-- Creator: CorelDRAW 2021 (64-Bit) -->

<svg
   xml:space="preserve"
   width="307.12256"
   height="307.16516"
   version="1.1"
   style="clip-rule:evenodd;fill-rule:evenodd;image-rendering:optimizeQuality;shape-rendering:geometricPrecision;text-rendering:geometricPrecision"
   viewBox="0 0 8125.9506 8127.0782"
   id="svg39"
   sodipodi:docname="BDL.svg"
   inkscape:version="1.1.2 (b8e25be833, 2022-02-05)"
   xmlns:inkscape="http://www.inkscape.org/namespaces/inkscape"
   xmlns:sodipodi="http://sodipodi.sourceforge.net/DTD/sodipodi-0.dtd"
   xmlns="http://www.w3.org/2000/svg"
   xmlns:svg="http://www.w3.org/2000/svg"><sodipodi:namedview
   id="namedview41"
   pagecolor="#ffffff"
   bordercolor="#666666"
   borderopacity="1.0"
   inkscape:pageshadow="2"
   inkscape:pageopacity="0.0"
   inkscape:pagecheckerboard="true"
   inkscape:document-units="mm"
   showgrid="false"
   units="px"
   fit-margin-top="35.3"
   fit-margin-left="14"
   fit-margin-right="14"
   fit-margin-bottom="35.3"
   inkscape:zoom="1"
   inkscape:cx="154"
   inkscape:cy="153.5"
   inkscape:window-width="1920"
   inkscape:window-height="991"
   inkscape:window-x="-9"
   inkscape:window-y="-9"
   inkscape:window-maximized="1"
   inkscape:current-layer="图层_x0020_1" />
 <defs
   id="defs4">
  <style
   type="text/css"
   id="style2">
   <![CDATA[
    .str0 {stroke:black;stroke-width:20;stroke-linecap:round;stroke-linejoin:round;stroke-miterlimit:22.9256}
    .fil0 {fill:none}
    .fil1 {fill:black}
   ]]>
  </style>
 </defs>
 <g
   id="图层_x0020_1"
   inkscape:label="图层 1"
   inkscape:groupmode="layer"
   transform="translate(-10781.496,-16942.261)">
  <metadata
   id="CorelCorpID_0Corel-Layer" />
  <rect
   class="fil0"
   x="9418.4199"
   y="15574.76"
   width="10862.07"
   height="10862.07"
   id="rect7" />
  <g
   id="_2806338363008">
   <path
   class="fil1"
   d="m 13850.54,22171.57 1349.4,4.18 135.87,-1228.83 c -87.21,-34.93 91.25,44.76 -71.92,-17.92 l -112.06,-53.24 c 82.12,-255.39 238.93,-590.99 215.84,-866.63 l -1278.06,0.05 z m 277.42,-239.24 855.4,-2.46 76.06,-758.34 -850.88,0.12 z m 104.43,-1006.29 662.42,0.01 206.8,-650.91 -800.98,-3.43 z"
   id="path9" />
   <path
   class="fil1"
   d="m 15528.51,22166.02 c 211.7,19.16 422.34,6.98 629.17,7.86 453.02,1.91 350.5,46.39 671.44,-272.8 82.6,-82.16 85.45,-62.29 107.72,-211.32 l 122.81,-1159.96 c 26.61,-259.95 -49.55,-235.87 -191.23,-400.29 -153.85,-178.52 -187.56,-121.3 -499.06,-120.12 -191.57,0.73 -426.48,-16.25 -610.72,9.17 z m 277.21,-236.58 c 927.16,29.39 846.37,49.83 938.19,-811.53 96.65,-906.6 206.39,-874.31 -753.78,-865.09 z"
   id="path11" />
   <path
   class="fil1"
   d="m 17206.65,22173.93 1239.77,0.05 90.61,-241.62 -1048.98,-0.03 c 20.4,-466.57 227.04,-1556.39 176.39,-1923.36 l -220.2,0.82 z"
   id="path13" />
   <path
   class="fil1 str0"
   d="m 14986.93,17886.24 c 579.47,0 1121.91,158.19 1586.84,433.44 -18.74,19.97 -32.72,44.45 -40.16,71.63 -453.05,-268.61 -981.8,-422.98 -1546.68,-422.98 -1677.55,0 -3037.47,1359.92 -3037.47,3037.47 0,1677.55 1359.92,3037.47 3037.47,3037.47 543.04,0 1052.71,-142.64 1493.82,-392.31 l -0.04,3.58 c 0,28.78 6.4,56.08 17.83,80.54 -447.79,248.6 -963.13,390.28 -1511.61,390.28 -1722.89,0 -3119.56,-1396.67 -3119.56,-3119.56 0,-1722.89 1396.67,-3119.56 3119.56,-3119.56 z"
   id="path15" />
   <circle
   class="fil1 str0"
   cx="12822.92"
   cy="18777.82"
   r="206.92"
   id="circle17" />
   <circle
   class="fil1 str0"
   cx="16698.189"
   cy="18436.42"
   r="170.62"
   id="circle19" />
   <circle
   class="fil1 str0"
   cx="12883.56"
   cy="23294.67"
   r="190.5"
   id="circle21" />
   <circle
   class="fil1 str0"
   cx="16671.199"
   cy="23654.539"
   r="190.5"
   id="circle23" />
   <polygon
   class="fil1 str0"
   points="11739.29,20880.93 11916.65,20303.55 12094.02,20880.93 12671.4,21058.3 12094.02,21235.66 11916.65,21813.04 11739.29,21235.66 11161.91,21058.3 "
   id="polygon25" />
   <circle
   class="fil1 str0"
   cx="13510.32"
   cy="19592.949"
   r="154.11"
   id="circle27" />
   <circle
   class="fil1 str0"
   cx="14997.23"
   cy="19019.59"
   r="108.97"
   id="circle29" />
   <circle
   class="fil1 str0"
   cx="13505.75"
   cy="22545.92"
   r="141.92"
   id="circle31" />
   <circle
   class="fil1 str0"
   cx="15000.69"
   cy="23118.539"
   r="99.150002"
   id="circle33" />
   <path
   class="fil1 str0"
   d="m 14962.43,18973.03 c 566.57,0 1080.78,224.05 1459.01,588.29 l -40.47,22.78 h -14.94 c -366.69,-344.95 -860.42,-556.38 -1403.6,-556.38 -1131.66,0 -2049.04,917.38 -2049.04,2049.04 0,1131.66 917.38,2049.04 2049.04,2049.04 542.51,0 1035.7,-210.91 1402.25,-555.11 l 49.84,28.04 c -377.58,360.37 -888.93,581.76 -1452.09,581.76 -1161.86,0 -2103.73,-941.87 -2103.73,-2103.73 0,-1161.86 941.87,-2103.73 2103.73,-2103.73 z"
   id="path35" />
  </g>
 </g>
</svg>
